<?xml version="1.0" ?><svg enable-background="new 0 0 64 64" id="Слой_1" version="1.1" viewBox="0 0 64 64" xml:space="preserve" xmlns="http://www.w3.org/2000/svg" xmlns:xlink="http://www.w3.org/1999/xlink"><g id="row_3"><g id="cooker_x5F_hood"><rect fill="#90A4AE" height="42" width="26" x="19" y="2"/><g><path d="M60,49.9L45,33H19L4,49.9c-0.3,0.3-0.5,0.7-0.7,1.1h57.4C60.5,50.6,60.3,50.2,60,49.9z" fill="#B0BEC5"/><path d="M3.3,51C3.1,51.5,3,52,3,52.5V58c0,0.6,0.4,1,1,1h56c0.6,0,1-0.4,1-1v-5.5c0-0.5-0.1-1-0.3-1.5H3.3z" fill="#78909C"/></g><rect fill="#AFB42B" height="4" width="18" x="23" y="53"/><circle cx="45" cy="55" fill="#ECEFF1" r="1"/><circle cx="49" cy="55" fill="#ECEFF1" r="1"/></g></g></svg>